# xmcd CD database file
#
# Track frame offsets:
#	150
#	8747
#	20920
#	33190
#	43442
#	54377
#	67072
#	78615
#	90235
#	101110
#	115012
#	128612
#	140580
#	154662
#	167007
#	179267
#	190940
#	201545
#
# Disc length: 2862 seconds
#
# Revision: 4
# Processed by: cddbd v1.5.2PL0 Copyright (c) Steve Scherf et al.
# Submitted via: CDex 1.70beta2
#
DISCID=f80b2c12
DTITLE=Ray Charles - The Genius Hits The Road
DYEAR=1960
DGENRE=R&B
TTITLE0=Hit The Road Jack
TTITLE1=Honey Honey
TTITLE2=Goin' Down Slow
TTITLE3=Now She's Gone
TTITLE4=Sentimental Blues
TTITLE5=You Always Miss The Water
TTITLE6=Ray Charles Blues
TTITLE7=She's On The Ball
TTITLE8=How Long
TTITLE9=I'm Gonna Drown Myself
TTITLE10=I Can't Stop Loving You
TTITLE11=See See Rider
TTITLE12=Walkin' And Talkin'
TTITLE13=I Had My Fun
TTITLE14=Kiss Me Baby
TTITLE15=Tell Me Baby
TTITLE16=Sitting On The Top Of The World
TTITLE17=All The Girls In Town
EXTD=YEAR: 1960
EXTT0=
EXTT1=
EXTT2=
EXTT3=
EXTT4=
EXTT5=
EXTT6=
EXTT7=
EXTT8=
EXTT9=
EXTT10=
EXTT11=
EXTT12=
EXTT13=
EXTT14=
EXTT15=
EXTT16=
EXTT17=
PLAYORDER=
